<svg width="239" height="350" viewBox="0 0 239 350" fill="none" xmlns="http://www.w3.org/2000/svg">
<path d="M184.974 98.7655C184.809 98.89 184.694 99.063 184.551 99.2091C158.639 67.3556 124.295 69.841 103.112 85.4595C89.2919 95.6493 81.8232 111.414 80.3908 124.768C66.9952 126.197 51.1845 133.642 40.9639 147.42C25.2981 168.539 22.8051 202.78 54.7566 228.615C54.6101 228.758 54.4365 228.873 54.3117 229.037C44.7862 241.558 40.515 270.624 60.1229 290.567C89.0638 320.001 118.809 308.631 141.41 316.13C181.476 329.423 211.455 317.564 241.866 286.392L242.505 285.755C273.771 255.436 285.666 225.547 272.333 185.602C264.811 163.069 276.216 133.413 246.693 104.559C226.69 85.0104 197.534 89.2706 184.976 98.7637L184.974 98.7655Z" fill="#FFCA62"/>
<path d="M134.617 256.785C134.707 242.011 120.168 229.976 102.143 229.903C84.1182 229.831 69.4329 241.749 69.3426 256.522C69.2523 271.296 83.7913 283.331 101.816 283.404C119.841 283.476 134.527 271.559 134.617 256.785Z" fill="white"/>
<path d="M116.004 195.706C122.519 182.423 114.675 165.277 98.4848 157.41C82.2947 149.543 63.8891 153.934 57.3747 167.217C50.8603 180.5 58.704 197.645 74.8942 205.512C91.0843 213.379 109.49 208.989 116.004 195.706Z" fill="white"/>
<path d="M239.531 146.145C239.458 128.174 227.386 113.679 212.568 113.769C197.75 113.859 185.796 128.5 185.868 146.471C185.941 164.441 198.013 178.936 212.831 178.847C227.65 178.757 239.603 164.116 239.531 146.145Z" fill="white"/>
<path d="M161.367 119.287C153.477 103.145 136.279 95.3252 122.956 101.82C109.633 108.315 105.229 126.665 113.12 142.806C121.01 158.948 138.208 166.768 151.531 160.273C164.854 153.778 169.258 135.428 161.367 119.287Z" fill="white"/>
<path d="M223.915 190.966C211.416 185.124 203.279 189.997 185.909 185.591C175.152 182.864 154.184 167.189 138.488 182.694C122.936 198.339 138.658 219.248 141.394 229.972C145.812 247.29 140.925 255.402 146.785 267.864C150.004 274.709 156.027 277.641 161.566 279.012C171.132 281.382 184.996 274.882 192.841 259.979C196.705 252.639 201.731 247.204 202.44 246.454C203.194 245.745 208.646 240.734 216.007 236.884C230.954 229.062 237.472 215.242 235.097 205.703C233.72 200.179 230.78 194.175 223.915 190.966Z" fill="white"/>
</svg>
