<svg width="212" height="64" viewBox="0 0 212 64" fill="none" xmlns="http://www.w3.org/2000/svg">
<path d="M8.20816 22.5116C8.20816 12.6019 15.3431 6.1936 26.2438 6.1936C35.625 6.1936 42.9581 12.6679 43.2884 21.2563H32.9163C32.5199 17.6888 29.7452 15.4426 25.7153 15.4426C21.0908 15.4426 18.4482 17.4246 18.4482 20.9921C18.4482 23.7668 19.9677 25.4184 23.3369 26.4094L30.2737 28.4574C37.4748 30.6375 40.9101 34.6674 40.9101 41.0757C40.9101 50.589 33.7091 56.8651 22.6763 56.8651C12.0399 56.8651 5.16919 51.1175 4.83887 41.8024H15.211C15.4092 45.436 18.3821 47.6161 23.1388 47.6161C27.8954 47.6161 30.7362 45.5681 30.7362 42.1327C30.7362 39.6883 29.6131 38.4992 26.508 37.5743L19.3731 35.5263C12.2381 33.4783 8.20816 28.7877 8.20816 22.5116Z" fill="#FF7037"/>
<path d="M55.0283 17.6888C52.2536 17.6888 50.2717 15.6408 50.2717 12.9322C50.2717 9.49683 53.3767 6.39179 56.8781 6.39179C59.6528 6.39179 61.6348 8.4398 61.6348 11.1484C61.6348 14.5177 58.4637 17.6888 55.0283 17.6888ZM44.1277 56.0063L49.3468 22.974H59.1904L53.9713 56.0063H44.1277Z" fill="#FF7037"/>
<path d="M77.5347 56.0063H67.3607V31.4303H61.0846V22.974H67.3607V12.734H77.5347V22.974H83.8108V31.4303H77.5347V56.0063Z" fill="white"/>
<path d="M103.019 56.0063H92.8446V31.4303H86.5685V22.974H92.8446V12.734H103.019V22.974H109.295V31.4303H103.019V56.0063Z" fill="white"/>
<path d="M128.871 56.8651C118.896 56.8651 111.761 49.598 111.761 39.4241C111.761 29.118 118.698 21.917 128.673 21.917C139.045 21.917 145.52 28.7216 145.52 39.4901V42.0667L121.538 42.1988C122.133 46.5591 124.577 48.6071 129.07 48.6071C132.901 48.6071 135.61 47.2197 136.337 44.8414H145.652C144.463 52.1745 137.922 56.8651 128.871 56.8651ZM128.739 30.175C124.709 30.175 122.463 31.9588 121.67 35.9227H135.412C135.412 32.4212 132.835 30.175 128.739 30.175Z" fill="white"/>
<path d="M174.271 22.974V32.5534H171.034C165.22 32.5534 161.718 35.1299 161.718 41.6703V56.0063H151.545V23.0401H161.124L161.652 27.9288C163.04 24.6917 165.947 22.5116 170.373 22.5116C171.562 22.5116 172.883 22.6437 174.271 22.974Z" fill="white"/>
<path d="M193.743 6.1936L197.326 12.6799L204.504 11.5093L201.794 18.4271L207.162 23.4537L200.2 25.5937L199.715 33.0323L193.743 28.7831L187.77 33.0323L187.286 25.5937L180.323 23.4537L185.691 18.4271L182.981 11.5093L190.159 12.6799L193.743 6.1936Z" fill="#1CCD83"/>
</svg>
