<svg width="132" height="40" viewBox="0 0 132 40" fill="none" xmlns="http://www.w3.org/2000/svg">
<path d="M4.68686 14.0697C4.68686 7.87613 9.14622 3.87096 15.9591 3.87096C21.8223 3.87096 26.4056 7.91742 26.612 13.2852H20.1294C19.8817 11.0555 18.1475 9.65161 15.6288 9.65161C12.7385 9.65161 11.0869 10.8903 11.0869 13.12C11.0869 14.8542 12.0365 15.8864 14.1423 16.5058L18.4778 17.7858C22.9785 19.1484 25.1256 21.6671 25.1256 25.6723C25.1256 31.6181 20.6249 35.5406 13.7294 35.5406C7.0817 35.5406 2.78751 31.9484 2.58105 26.1264H9.06364C9.18751 28.3974 11.0456 29.76 14.0185 29.76C16.9914 29.76 18.7669 28.48 18.7669 26.3329C18.7669 24.8052 18.0649 24.0619 16.1243 23.4839L11.6649 22.2039C7.20557 20.9239 4.68686 17.9923 4.68686 14.0697Z" fill="#FF7037"/>
<path d="M33.9494 11.0555C32.2152 11.0555 30.9765 9.77548 30.9765 8.08258C30.9765 5.93548 32.9172 3.99483 35.1056 3.99483C36.8398 3.99483 38.0785 5.27483 38.0785 6.96774C38.0785 9.07354 36.0965 11.0555 33.9494 11.0555ZM27.1365 35.0039L30.3985 14.3587H36.5507L33.2888 35.0039H27.1365Z" fill="#FF7037"/>
<path d="M48.0159 35.0039H41.6572V19.6439H37.7346V14.3587H41.6572V7.9587H48.0159V14.3587H51.9385V19.6439H48.0159V35.0039Z" fill="black"/>
<path d="M63.9433 35.0039H57.5846V19.6439H53.662V14.3587H57.5846V7.9587H63.9433V14.3587H67.8659V19.6439H63.9433V35.0039Z" fill="black"/>
<path d="M80.1014 35.5406C73.8665 35.5406 69.4072 30.9987 69.4072 24.64C69.4072 18.1987 73.7427 13.6981 79.9775 13.6981C86.4601 13.6981 90.5065 17.951 90.5065 24.6813V26.2916L75.5182 26.3742C75.8898 29.0994 77.4175 30.3794 80.2252 30.3794C82.6201 30.3794 84.313 29.5123 84.7672 28.0258H90.5891C89.8459 32.609 85.7581 35.5406 80.1014 35.5406ZM80.0188 18.8593C77.5001 18.8593 76.0962 19.9742 75.6007 22.4516H84.1891C84.1891 20.2632 82.5788 18.8593 80.0188 18.8593Z" fill="black"/>
<path d="M108.476 14.3587V20.3458H106.453C102.819 20.3458 100.631 21.9561 100.631 26.0439V35.0039H94.272V14.4H100.259L100.589 17.4555C101.457 15.4323 103.273 14.0697 106.04 14.0697C106.783 14.0697 107.609 14.1523 108.476 14.3587Z" fill="black"/>
<path d="M120.645 3.87096L122.884 7.92488L127.371 7.1933L125.677 11.5169L129.032 14.6585L124.68 15.996L124.378 20.6452L120.645 17.9894L116.912 20.6452L116.609 15.996L112.258 14.6585L115.613 11.5169L113.919 7.1933L118.405 7.92488L120.645 3.87096Z" fill="#1CCD83"/>
</svg>
