<svg width="24" height="24" viewBox="0 0 24 24" fill="none" xmlns="http://www.w3.org/2000/svg">
<path d="M19.8989 12.6604C19.7386 12.4779 19.6502 12.2433 19.6502 12.0004C19.6502 11.7575 19.7386 11.5229 19.8989 11.3404L21.1789 9.90038C21.32 9.74305 21.4076 9.54509 21.4291 9.33489C21.4507 9.12469 21.4051 8.91307 21.2989 8.73038L19.2989 5.27038C19.1938 5.0879 19.0338 4.94326 18.8417 4.85707C18.6495 4.77088 18.4351 4.74754 18.2289 4.79038L16.3489 5.17038C16.1097 5.21981 15.8607 5.17997 15.6488 5.05838C15.4369 4.93679 15.2769 4.74187 15.1989 4.51038L14.5889 2.68038C14.5218 2.48176 14.394 2.30925 14.2235 2.18723C14.0531 2.0652 13.8486 1.99984 13.6389 2.00038H9.63892C9.42085 1.989 9.20505 2.04931 9.02448 2.1721C8.84391 2.29489 8.7085 2.4734 8.63892 2.68038L8.07892 4.51038C8.00092 4.74187 7.84089 4.93679 7.62903 5.05838C7.41717 5.17997 7.16814 5.21981 6.92892 5.17038L4.99892 4.79038C4.80347 4.76276 4.60422 4.79361 4.42627 4.87902C4.24831 4.96444 4.09962 5.10061 3.99892 5.27038L1.99892 8.73038C1.89008 8.91103 1.84114 9.12147 1.8591 9.33161C1.87706 9.54174 1.961 9.74082 2.09892 9.90038L3.36892 11.3404C3.52924 11.5229 3.61765 11.7575 3.61765 12.0004C3.61765 12.2433 3.52924 12.4779 3.36892 12.6604L2.09892 14.1004C1.961 14.2599 1.87706 14.459 1.8591 14.6692C1.84114 14.8793 1.89008 15.0897 1.99892 15.2704L3.99892 18.7304C4.10402 18.9129 4.26404 19.0575 4.45617 19.1437C4.6483 19.2299 4.86274 19.2532 5.06892 19.2104L6.94892 18.8304C7.18814 18.781 7.43717 18.8208 7.64903 18.9424C7.86089 19.064 8.02092 19.2589 8.09892 19.4904L8.70892 21.3204C8.7785 21.5274 8.91392 21.7059 9.09449 21.8287C9.27506 21.9515 9.49085 22.0118 9.70892 22.0004H13.7089C13.9186 22.0009 14.1231 21.9356 14.2935 21.8135C14.464 21.6915 14.5918 21.519 14.6589 21.3204L15.2689 19.4904C15.3469 19.2589 15.5069 19.064 15.7188 18.9424C15.9307 18.8208 16.1797 18.781 16.4189 18.8304L18.2989 19.2104C18.5051 19.2532 18.7195 19.2299 18.9117 19.1437C19.1038 19.0575 19.2638 18.9129 19.3689 18.7304L21.3689 15.2704C21.4751 15.0877 21.5207 14.8761 21.4991 14.6659C21.4776 14.4557 21.39 14.2577 21.2489 14.1004L19.8989 12.6604ZM18.4089 14.0004L19.2089 14.9004L17.9289 17.1204L16.7489 16.8804C16.0287 16.7332 15.2795 16.8555 14.6435 17.2242C14.0075 17.5929 13.5291 18.1822 13.2989 18.8804L12.9189 20.0004H10.3589L9.99892 18.8604C9.76877 18.1622 9.2903 17.5729 8.65432 17.2042C8.01835 16.8355 7.26914 16.7132 6.54892 16.8604L5.36892 17.1004L4.06892 14.8904L4.86892 13.9904C5.36087 13.4404 5.63285 12.7283 5.63285 11.9904C5.63285 11.2525 5.36087 10.5404 4.86892 9.99038L4.06892 9.09038L5.34892 6.89038L6.52892 7.13038C7.24914 7.27761 7.99835 7.15526 8.63432 6.78658C9.2703 6.4179 9.74877 5.82854 9.97892 5.13038L10.3589 4.00038H12.9189L13.2989 5.14038C13.5291 5.83854 14.0075 6.4279 14.6435 6.79658C15.2795 7.16526 16.0287 7.28761 16.7489 7.14038L17.9289 6.90038L19.2089 9.12038L18.4089 10.0204C17.9225 10.5691 17.6539 11.2771 17.6539 12.0104C17.6539 12.7437 17.9225 13.4516 18.4089 14.0004ZM11.6389 8.00038C10.8478 8.00038 10.0744 8.23498 9.41664 8.67451C8.75884 9.11403 8.24615 9.73874 7.9434 10.4696C7.64065 11.2006 7.56144 12.0048 7.71578 12.7807C7.87012 13.5567 8.25108 14.2694 8.81049 14.8288C9.3699 15.3882 10.0826 15.7692 10.8586 15.9235C11.6345 16.0779 12.4387 15.9987 13.1697 15.6959C13.9006 15.3932 14.5253 14.8805 14.9648 14.2227C15.4043 13.5649 15.6389 12.7915 15.6389 12.0004C15.6389 10.9395 15.2175 9.9221 14.4673 9.17196C13.7172 8.42181 12.6998 8.00038 11.6389 8.00038ZM11.6389 14.0004C11.2434 14.0004 10.8567 13.8831 10.5278 13.6633C10.1989 13.4436 9.94254 13.1312 9.79116 12.7657C9.63979 12.4003 9.60018 11.9982 9.67735 11.6102C9.75452 11.2222 9.945 10.8659 10.2247 10.5862C10.5044 10.3065 10.8608 10.116 11.2487 10.0388C11.6367 9.96164 12.0388 10.0012 12.4043 10.1526C12.7697 10.304 13.0821 10.5603 13.3019 10.8892C13.5216 11.2181 13.6389 11.6048 13.6389 12.0004C13.6389 12.5308 13.4282 13.0395 13.0531 13.4146C12.6781 13.7897 12.1694 14.0004 11.6389 14.0004Z" fill="#3A3B46"/>
</svg>
