<svg width="19" height="17" viewBox="0 0 19 17" fill="none" xmlns="http://www.w3.org/2000/svg">
<path fill-rule="evenodd" clip-rule="evenodd" d="M3.58776 12.3048L5.46011 9.31498C6.23701 8.07421 7.56052 7.33333 9.00009 7.33333C10.4398 7.33333 11.7632 8.07421 12.5402 9.31498L14.4125 12.3046C14.7232 12.8009 14.8665 13.3739 14.827 13.962C14.7875 14.5499 14.5688 15.0975 14.1946 15.5455C13.8202 15.9935 13.3257 16.2996 12.7643 16.4308C12.5665 16.4769 12.3669 16.5 12.1685 16.5C11.8036 16.5 11.442 16.4223 11.1006 16.2687C9.77712 15.673 8.26061 15.6677 6.93381 16.2531L6.89942 16.2687C6.37218 16.5059 5.79672 16.5619 5.23536 16.4307C4.67399 16.2993 4.17943 15.9932 3.80514 15.5453C3.43112 15.0971 3.21255 14.5496 3.17316 13.9617C3.13377 13.3739 3.27711 12.8009 3.58776 12.3048ZM7.03593 16.4813C7.03553 16.4815 7.03513 16.4816 7.03472 16.4818L7.00199 16.4967C6.42487 16.7564 5.79338 16.8179 5.17846 16.6741C4.56362 16.5303 4.02188 16.1946 3.61329 15.7055C3.20509 15.2165 2.96661 14.6185 2.92372 13.9784C2.88084 13.3385 3.03709 12.7131 3.37587 12.1721L5.24822 9.1823C6.06988 7.87004 7.47263 7.08333 9.00009 7.08333C10.5277 7.08333 11.9303 7.87005 12.7521 9.18229L13.8601 10.9515C13.6264 10.1191 13.7668 9.12777 14.2755 8.3317C15.0689 7.09208 16.5545 6.66745 17.586 7.54894C18.5838 8.40367 18.6784 10.1029 17.8913 11.3346C17.3837 12.1272 16.607 12.5833 15.831 12.5833C15.3925 12.5833 14.9632 12.4367 14.6005 12.1337L14.6244 12.1719C14.9632 12.7131 15.1195 13.3385 15.0764 13.9787C15.0334 14.6188 14.7949 15.2168 14.3865 15.7058C13.9778 16.1948 13.4361 16.5305 12.8212 16.6743C12.6051 16.7247 12.3864 16.75 12.1685 16.75C11.7678 16.75 11.3712 16.6646 10.998 16.4967C9.73962 15.9302 8.29758 15.925 7.03593 16.4813ZM14.7432 11.927C15.064 12.2019 15.443 12.3333 15.831 12.3333C16.5071 12.3333 17.2105 11.9341 17.6806 11.2C18.4186 10.0451 18.3033 8.49263 17.4236 7.739C16.5427 6.9862 15.2249 7.31207 14.4862 8.46632C13.7482 9.62114 13.8636 11.1736 14.7432 11.927ZM6.49273 15.3198C7.28925 14.9613 8.14467 14.7821 8.99969 14.7821C9.8555 14.7821 10.7111 14.9615 11.5081 15.3203C12.1787 15.6221 12.9491 15.442 13.4254 14.8721C13.9014 14.3023 13.9557 13.4952 13.5603 12.8637L11.6881 9.87407C11.098 8.932 10.0932 8.36953 9.00009 8.36953C7.907 8.36953 6.90232 8.932 6.31237 9.87407L4.43988 12.8639C4.04465 13.4951 4.0988 14.3021 4.57453 14.8721C5.04551 15.4356 5.80463 15.6181 6.47007 15.33L6.49273 15.3198ZM6.36898 15.1014L6.3897 15.092C7.21891 14.7189 8.10977 14.5321 8.99969 14.5321C9.89042 14.5321 10.781 14.7188 11.6107 15.0924C12.1776 15.3475 12.8281 15.1969 13.2335 14.7118C13.6398 14.2254 13.6866 13.5366 13.3484 12.9964L11.4762 10.0068C11.4762 10.0068 11.4762 10.0068 11.4762 10.0068C10.9309 9.13618 10.0053 8.61953 9.00009 8.61953C7.9949 8.61953 7.06945 9.13616 6.52425 10.0068L4.65178 12.9965C4.65177 12.9965 4.65178 12.9965 4.65178 12.9965C4.31372 13.5365 4.36032 14.2252 4.76646 14.7119C5.16699 15.191 5.80705 15.3437 6.36898 15.1014ZM4.70212 8.40075C4.50326 9.0189 4.10531 9.48044 3.58147 9.70044C3.36762 9.79053 3.14634 9.83333 2.92568 9.83333C2.0615 9.83333 1.20673 9.17726 0.840243 8.13794C0.381452 6.83216 0.864279 5.41056 1.91641 4.96825C2.43938 4.74784 3.01761 4.79878 3.54405 5.11158C4.04497 5.40947 4.44069 5.91341 4.65826 6.53075C4.8757 7.14848 4.89118 7.81255 4.70212 8.40075ZM1.81953 4.73779C2.42206 4.48393 3.08343 4.54709 3.67175 4.89665C4.22918 5.22816 4.65956 5.7823 4.89404 6.44765C5.12846 7.11363 5.14693 7.83387 4.94012 8.47726C4.72248 9.15379 4.2794 9.67847 3.67827 9.93094C3.43327 10.0341 3.17903 10.0833 2.92568 10.0833C1.93251 10.0833 0.99792 9.33685 0.604472 8.22108C0.116161 6.83128 0.609313 5.24655 1.81953 4.73779ZM2.25837 5.93956C1.69575 6.17609 1.45824 6.99459 1.72859 7.76405C1.9998 8.53284 2.67813 8.96566 3.24001 8.72886C3.49895 8.62008 3.69929 8.38084 3.80399 8.05544C3.91822 7.70038 3.90608 7.29181 3.76992 6.90477C3.63363 6.51801 3.39191 6.20589 3.08935 6.02612C2.9211 5.92601 2.74628 5.87548 2.57703 5.87548C2.46738 5.87548 2.35997 5.89675 2.25837 5.93956ZM3.53408 6.98774C3.41387 6.64667 3.20569 6.38605 2.96165 6.24105C2.82704 6.16096 2.69577 6.12548 2.57703 6.12548C2.50014 6.12548 2.42578 6.14031 2.35544 6.16994C2.16138 6.25153 2.0021 6.44302 1.9212 6.72166C1.84072 6.99891 1.84547 7.3425 1.96443 7.68113C2.08385 8.01948 2.28885 8.27179 2.5098 8.41281C2.72948 8.55302 2.95297 8.57853 3.14292 8.49848C3.32013 8.42403 3.47835 8.25131 3.566 7.97888C3.66181 7.68107 3.65405 7.32874 3.53408 6.98774ZM12.2105 7.47205C10.7724 7.04041 10.061 5.49268 10.5935 4.04638C10.8451 3.36237 11.3377 2.79269 11.9798 2.44158C12.6521 2.0741 13.4134 1.98392 14.1211 2.1961C14.8298 2.40888 15.3887 2.89656 15.6893 3.56708C15.9762 4.20697 15.9907 4.93776 15.7385 5.62207C15.3015 6.8088 14.1572 7.58333 12.9732 7.58333C12.7185 7.58333 12.462 7.54739 12.2105 7.47205ZM15.5039 5.53567C15.7349 4.90879 15.7197 4.24593 15.4612 3.66935C15.1906 3.06585 14.6893 2.62772 14.0493 2.43557C13.4093 2.24367 12.7168 2.32365 12.0997 2.66092C11.5103 2.98323 11.0587 3.50587 10.8281 4.13275C10.3412 5.45519 10.9936 6.84578 12.2824 7.2326C12.5099 7.30076 12.7421 7.33333 12.9732 7.33333C14.0518 7.33333 15.1029 6.62471 15.5039 5.53567ZM12.0784 4.52384C11.8151 5.23908 12.1332 5.90846 12.6919 6.07626C13.2681 6.24903 13.9882 5.86523 14.2536 5.14447C14.3842 4.79025 14.3747 4.43253 14.2409 4.13403C14.1179 3.85989 13.904 3.67125 13.6398 3.59188C13.3738 3.51215 13.0671 3.54659 12.7743 3.70672C12.4569 3.88031 12.2088 4.16953 12.0784 4.52384ZM13.7117 3.35245C14.0491 3.45381 14.318 3.695 14.469 4.03177C14.6321 4.39571 14.6391 4.82151 14.4882 5.23084C14.1875 6.04774 13.3494 6.53441 12.6201 6.31573C11.8913 6.09691 11.5431 5.25436 11.8438 4.43746C11.9944 4.02813 12.2822 3.69085 12.6543 3.48738C12.9986 3.29913 13.3742 3.25121 13.7117 3.35245ZM15.2934 11.0674C15.764 11.4707 16.5014 11.2448 16.9376 10.5637C17.3722 9.88339 17.3437 9.00197 16.8738 8.59884C16.7155 8.4634 16.5271 8.39909 16.3302 8.39909C15.941 8.39909 15.5186 8.65049 15.2295 9.10233C14.7945 9.78303 14.8231 10.6647 15.2934 11.0674ZM15.44 9.23708C15.2494 9.53548 15.1619 9.87637 15.1718 10.181C15.1818 10.4881 15.2885 10.7341 15.456 10.8776C15.6172 11.0157 15.8272 11.053 16.0552 10.9832C16.2873 10.912 16.5356 10.7279 16.7271 10.4288C16.9175 10.1307 17.0049 9.79 16.9951 9.48543C16.9851 9.1784 16.8785 8.93228 16.7111 8.78863C16.6001 8.69379 16.4701 8.64909 16.3302 8.64909C16.0474 8.64909 15.696 8.83712 15.44 9.23708ZM10.0834 3.58367C10.0834 5.29231 8.88467 6.75 7.33331 6.75C5.78206 6.75 4.58344 5.29228 4.58344 3.58367C4.58344 1.87471 5.78201 0.416667 7.33331 0.416667C8.88472 0.416667 10.0834 1.87468 10.0834 3.58367ZM8.58575 3.58367C8.58575 2.6193 7.97255 1.93815 7.33331 1.93815C6.69412 1.93815 6.08113 2.61924 6.08113 3.58367C6.08113 4.5476 6.69405 5.22852 7.33331 5.22852C7.97262 5.22852 8.58575 4.54754 8.58575 3.58367ZM9.83344 3.58367C9.83344 5.19174 8.71187 6.5 7.33331 6.5C5.95488 6.5 4.83344 5.19174 4.83344 3.58367C4.83344 1.9752 5.95488 0.666667 7.33331 0.666667C8.71187 0.666667 9.83344 1.9752 9.83344 3.58367ZM8.83575 3.58367C8.83575 2.53852 8.16167 1.68815 7.33331 1.68815C6.50496 1.68815 5.83113 2.53852 5.83113 3.58367C5.83113 4.62841 6.50496 5.47852 7.33331 5.47852C8.16167 5.47852 8.83575 4.62841 8.83575 3.58367Z" fill="#3A3B46"/>
</svg>
