<svg width="20" height="20" viewBox="0 0 20 20" fill="none" xmlns="http://www.w3.org/2000/svg">
<path d="M13.5404 10.315C12.7634 9.07421 11.44 8.33333 10.0003 8.33333C8.56073 8.33333 7.23723 9.07421 6.46033 10.315L4.58798 13.3048C4.27733 13.8009 4.13399 14.3739 4.17338 14.9617C4.21277 15.5496 4.43134 16.0971 4.80536 16.5453C5.17964 16.9932 5.67421 17.2993 6.23558 17.4307C6.79694 17.5619 7.3724 17.5059 7.89964 17.2687L7.93403 17.2531C9.26082 16.6677 10.7773 16.673 12.1008 17.2687C12.4422 17.4223 12.8038 17.5 13.1688 17.5C13.3672 17.5 13.5668 17.4769 13.7645 17.4308C14.3259 17.2996 14.8204 16.9935 15.1949 16.5455C15.569 16.0975 15.7877 15.5499 15.8272 14.962C15.8668 14.3739 15.7234 13.8009 15.4128 13.3046L13.5404 10.315ZM14.4256 15.8721C13.9493 16.442 13.1789 16.6221 12.5083 16.3203C11.7113 15.9615 10.8557 15.7821 9.99991 15.7821C9.14489 15.7821 8.28947 15.9613 7.49295 16.3198L7.47029 16.33C6.80484 16.6181 6.04573 16.4356 5.57475 15.8721C5.09902 15.3021 5.04487 14.4951 5.4401 13.8639L7.31259 10.8741C7.90254 9.932 8.90722 9.36953 10.0003 9.36953C11.0934 9.36953 12.0982 9.932 12.6883 10.8741L14.5605 13.8637C14.9559 14.4952 14.9016 15.3023 14.4256 15.8721Z" fill="#3A3B46"/>
<path d="M4.58169 10.7004C5.10552 10.4804 5.50348 10.0189 5.70234 9.40075C5.8914 8.81255 5.87592 8.14848 5.65848 7.53075C5.44091 6.91341 5.04519 6.40947 4.54427 6.11158C4.01783 5.79878 3.4396 5.74784 2.91663 5.96825C1.8645 6.41056 1.38167 7.83216 1.84046 9.13794C2.20695 10.1773 3.06172 10.8333 3.9259 10.8333C4.14656 10.8333 4.36784 10.7905 4.58169 10.7004ZM2.7288 8.76405C2.45846 7.99459 2.69597 7.17609 3.25859 6.93956C3.36018 6.89675 3.4676 6.87548 3.57725 6.87548C3.7465 6.87548 3.92131 6.92601 4.08957 7.02612C4.39212 7.20589 4.63385 7.51801 4.77013 7.90477C4.9063 8.29181 4.91844 8.70038 4.80421 9.05544C4.69951 9.38084 4.49917 9.62008 4.24023 9.72886C3.67835 9.96566 3.00002 9.53284 2.7288 8.76405Z" fill="#3A3B46"/>
<path d="M8.33353 7.5C9.71209 7.5 10.8337 6.19174 10.8337 4.58367C10.8337 2.9752 9.71209 1.66667 8.33353 1.66667C6.9551 1.66667 5.83366 2.9752 5.83366 4.58367C5.83366 6.19174 6.9551 7.5 8.33353 7.5ZM8.33353 2.68815C9.16188 2.68815 9.83597 3.53852 9.83597 4.58367C9.83597 5.62841 9.16188 6.47852 8.33353 6.47852C7.50517 6.47852 6.83135 5.62841 6.83135 4.58367C6.83135 3.53852 7.50517 2.68815 8.33353 2.68815Z" fill="#3A3B46"/>
<path d="M13.2826 8.2326C13.5101 8.30076 13.7423 8.33333 13.9734 8.33333C15.052 8.33333 16.1031 7.62471 16.5042 6.53567C16.7351 5.90879 16.7199 5.24593 16.4614 4.66935C16.1908 4.06585 15.6895 3.62772 15.0495 3.43557C14.4095 3.24367 13.717 3.32365 13.1 3.66092C12.5105 3.98323 12.0589 4.50587 11.8283 5.13275C11.3415 6.45519 11.9938 7.84578 13.2826 8.2326ZM12.8441 5.43746C12.9946 5.02813 13.2825 4.69085 13.6546 4.48738C13.9988 4.29913 14.3744 4.25121 14.7119 4.35245C15.0493 4.45381 15.3182 4.695 15.4692 5.03177C15.6324 5.39571 15.6393 5.82151 15.4884 6.23084C15.1877 7.04774 14.3496 7.53441 13.6203 7.31573C12.8916 7.09691 12.5433 6.25436 12.8441 5.43746Z" fill="#3A3B46"/>
<path d="M18.4238 8.739C17.5429 7.9862 16.2251 8.31207 15.4864 9.46632C14.7485 10.6211 14.8638 12.1736 15.7434 12.927C16.0642 13.2019 16.4433 13.3333 16.8312 13.3333C17.5073 13.3333 18.2107 12.9341 18.6809 12.2C19.4188 11.0451 19.3035 9.49263 18.4238 8.739ZM17.9378 11.5637C17.5017 12.2448 16.7642 12.4707 16.2936 12.0674C15.8233 11.6647 15.7947 10.783 16.2297 10.1023C16.5188 9.65049 16.9412 9.39909 17.3304 9.39909C17.5273 9.39909 17.7157 9.4634 17.8741 9.59884C18.3439 10.002 18.3725 10.8834 17.9378 11.5637Z" fill="#3A3B46"/>
<path fill-rule="evenodd" clip-rule="evenodd" d="M4.58776 13.3048L6.46011 10.315C7.23701 9.07421 8.56052 8.33333 10.0001 8.33333C11.4398 8.33333 12.7632 9.07421 13.5402 10.315L15.4125 13.3046C15.7232 13.8009 15.8665 14.3739 15.827 14.962C15.7875 15.5499 15.5688 16.0975 15.1946 16.5455C14.8202 16.9935 14.3257 17.2996 13.7643 17.4308C13.5665 17.4769 13.3669 17.5 13.1685 17.5C12.8036 17.5 12.442 17.4223 12.1006 17.2687C10.7771 16.673 9.26061 16.6677 7.93381 17.2531L7.89942 17.2687C7.37218 17.5059 6.79672 17.5619 6.23536 17.4307C5.67399 17.2993 5.17943 16.9932 4.80514 16.5453C4.43112 16.0971 4.21255 15.5496 4.17316 14.9617C4.13377 14.3739 4.27711 13.8009 4.58776 13.3048ZM8.03593 17.4813C8.03553 17.4815 8.03513 17.4816 8.03472 17.4818L8.00199 17.4967C7.42487 17.7564 6.79338 17.8179 6.17846 17.6741C5.56362 17.5303 5.02188 17.1946 4.61329 16.7055C4.20509 16.2165 3.96661 15.6185 3.92372 14.9784C3.88084 14.3385 4.03709 13.7131 4.37587 13.1721L6.24822 10.1823C7.06988 8.87004 8.47263 8.08333 10.0001 8.08333C11.5277 8.08333 12.9303 8.87005 13.7521 10.1823L14.8601 11.9515C14.6264 11.1191 14.7668 10.1278 15.2755 9.3317C16.0689 8.09208 17.5545 7.66745 18.586 8.54894C19.5838 9.40367 19.6784 11.1029 18.8913 12.3346C18.3837 13.1272 17.607 13.5833 16.831 13.5833C16.3925 13.5833 15.9632 13.4367 15.6005 13.1337L15.6244 13.1719C15.9632 13.7131 16.1195 14.3385 16.0764 14.9787C16.0334 15.6188 15.7949 16.2168 15.3865 16.7058C14.9778 17.1948 14.4361 17.5305 13.8212 17.6743C13.6051 17.7247 13.3864 17.75 13.1685 17.75C12.7678 17.75 12.3712 17.6646 11.998 17.4967C10.7396 16.9302 9.29758 16.925 8.03593 17.4813ZM15.7432 12.927C16.064 13.2019 16.443 13.3333 16.831 13.3333C17.5071 13.3333 18.2105 12.9341 18.6806 12.2C19.4186 11.0451 19.3033 9.49263 18.4236 8.739C17.5427 7.9862 16.2249 8.31207 15.4862 9.46632C14.7482 10.6211 14.8636 12.1736 15.7432 12.927ZM7.49273 16.3198C8.28925 15.9613 9.14467 15.7821 9.99969 15.7821C10.8555 15.7821 11.7111 15.9615 12.5081 16.3203C13.1787 16.6221 13.9491 16.442 14.4254 15.8721C14.9014 15.3023 14.9557 14.4952 14.5603 13.8637L12.6881 10.8741C12.098 9.932 11.0932 9.36953 10.0001 9.36953C8.907 9.36953 7.90232 9.932 7.31237 10.8741L5.43988 13.8639C5.04465 14.4951 5.0988 15.3021 5.57453 15.8721C6.04551 16.4356 6.80463 16.6181 7.47007 16.33L7.49273 16.3198ZM7.36898 16.1014L7.3897 16.092C8.21891 15.7189 9.10977 15.5321 9.99969 15.5321C10.8904 15.5321 11.781 15.7188 12.6107 16.0924C13.1776 16.3475 13.8281 16.1969 14.2335 15.7118C14.6398 15.2254 14.6866 14.5366 14.3484 13.9964L12.4762 11.0068C12.4762 11.0068 12.4762 11.0068 12.4762 11.0068C11.9309 10.1362 11.0053 9.61953 10.0001 9.61953C8.9949 9.61953 8.06945 10.1362 7.52425 11.0068L5.65178 13.9965C5.65177 13.9965 5.65178 13.9965 5.65178 13.9965C5.31372 14.5365 5.36032 15.2252 5.76646 15.7119C6.16699 16.191 6.80705 16.3437 7.36898 16.1014ZM5.70212 9.40075C5.50326 10.0189 5.10531 10.4804 4.58147 10.7004C4.36762 10.7905 4.14634 10.8333 3.92568 10.8333C3.0615 10.8333 2.20673 10.1773 1.84024 9.13794C1.38145 7.83216 1.86428 6.41056 2.91641 5.96825C3.43938 5.74784 4.01761 5.79878 4.54405 6.11158C5.04497 6.40947 5.44069 6.91341 5.65826 7.53075C5.8757 8.14848 5.89118 8.81255 5.70212 9.40075ZM2.81953 5.73779C3.42206 5.48393 4.08343 5.54709 4.67175 5.89665C5.22918 6.22816 5.65956 6.7823 5.89404 7.44765C6.12846 8.11363 6.14693 8.83387 5.94012 9.47726C5.72248 10.1538 5.2794 10.6785 4.67827 10.9309C4.43327 11.0341 4.17903 11.0833 3.92568 11.0833C2.93251 11.0833 1.99792 10.3369 1.60447 9.22108C1.11616 7.83128 1.60931 6.24655 2.81953 5.73779ZM3.25837 6.93956C2.69575 7.17609 2.45824 7.99459 2.72859 8.76405C2.9998 9.53284 3.67813 9.96566 4.24001 9.72886C4.49895 9.62008 4.69929 9.38084 4.80399 9.05544C4.91822 8.70038 4.90608 8.29181 4.76992 7.90477C4.63363 7.51801 4.39191 7.20589 4.08935 7.02612C3.9211 6.92601 3.74628 6.87548 3.57703 6.87548C3.46738 6.87548 3.35997 6.89675 3.25837 6.93956ZM4.53408 7.98774C4.41387 7.64667 4.20569 7.38605 3.96165 7.24105C3.82704 7.16096 3.69577 7.12548 3.57703 7.12548C3.50014 7.12548 3.42578 7.14031 3.35544 7.16994C3.16138 7.25153 3.0021 7.44302 2.9212 7.72166C2.84072 7.99891 2.84547 8.3425 2.96443 8.68113C3.08385 9.01948 3.28885 9.27179 3.5098 9.41281C3.72948 9.55302 3.95297 9.57853 4.14292 9.49848C4.32013 9.42403 4.47835 9.25131 4.566 8.97888C4.66181 8.68107 4.65405 8.32874 4.53408 7.98774ZM13.2105 8.47205C11.7724 8.04041 11.061 6.49268 11.5935 5.04638C11.8451 4.36237 12.3377 3.79269 12.9798 3.44158C13.6521 3.0741 14.4134 2.98392 15.1211 3.1961C15.8298 3.40888 16.3887 3.89656 16.6893 4.56708C16.9762 5.20697 16.9907 5.93776 16.7385 6.62207C16.3015 7.8088 15.1572 8.58333 13.9732 8.58333C13.7185 8.58333 13.462 8.54739 13.2105 8.47205ZM16.5039 6.53567C16.7349 5.90879 16.7197 5.24593 16.4612 4.66935C16.1906 4.06585 15.6893 3.62772 15.0493 3.43557C14.4093 3.24367 13.7168 3.32365 13.0997 3.66092C12.5103 3.98323 12.0587 4.50587 11.8281 5.13275C11.3412 6.45519 11.9936 7.84578 13.2824 8.2326C13.5099 8.30076 13.7421 8.33333 13.9732 8.33333C15.0518 8.33333 16.1029 7.62471 16.5039 6.53567ZM13.0784 5.52384C12.8151 6.23908 13.1332 6.90846 13.6919 7.07626C14.2681 7.24903 14.9882 6.86523 15.2536 6.14447C15.3842 5.79025 15.3747 5.43253 15.2409 5.13403C15.1179 4.85989 14.904 4.67125 14.6398 4.59188C14.3738 4.51215 14.0671 4.54659 13.7743 4.70672C13.4569 4.88031 13.2088 5.16953 13.0784 5.52384ZM14.7117 4.35245C15.0491 4.45381 15.318 4.695 15.469 5.03177C15.6321 5.39571 15.6391 5.82151 15.4882 6.23084C15.1875 7.04774 14.3494 7.53441 13.6201 7.31573C12.8913 7.09691 12.5431 6.25436 12.8438 5.43746C12.9944 5.02813 13.2822 4.69085 13.6543 4.48738C13.9986 4.29913 14.3742 4.25121 14.7117 4.35245ZM16.2934 12.0674C16.764 12.4707 17.5014 12.2448 17.9376 11.5637C18.3722 10.8834 18.3437 10.002 17.8738 9.59884C17.7155 9.4634 17.5271 9.39909 17.3302 9.39909C16.941 9.39909 16.5186 9.65049 16.2295 10.1023C15.7945 10.783 15.8231 11.6647 16.2934 12.0674ZM16.44 10.2371C16.2494 10.5355 16.1619 10.8764 16.1718 11.181C16.1818 11.4881 16.2885 11.7341 16.456 11.8776C16.6172 12.0157 16.8272 12.053 17.0552 11.9832C17.2873 11.912 17.5356 11.7279 17.7271 11.4288C17.9175 11.1307 18.0049 10.79 17.9951 10.4854C17.9851 10.1784 17.8785 9.93228 17.7111 9.78863C17.6001 9.69379 17.4701 9.64909 17.3302 9.64909C17.0474 9.64909 16.696 9.83712 16.44 10.2371ZM11.0834 4.58367C11.0834 6.29231 9.88467 7.75 8.33331 7.75C6.78206 7.75 5.58344 6.29228 5.58344 4.58367C5.58344 2.87471 6.78201 1.41667 8.33331 1.41667C9.88472 1.41667 11.0834 2.87468 11.0834 4.58367ZM9.58575 4.58367C9.58575 3.6193 8.97255 2.93815 8.33331 2.93815C7.69412 2.93815 7.08113 3.61924 7.08113 4.58367C7.08113 5.5476 7.69405 6.22852 8.33331 6.22852C8.97262 6.22852 9.58575 5.54754 9.58575 4.58367ZM10.8334 4.58367C10.8334 6.19174 9.71187 7.5 8.33331 7.5C6.95488 7.5 5.83344 6.19174 5.83344 4.58367C5.83344 2.9752 6.95488 1.66667 8.33331 1.66667C9.71187 1.66667 10.8334 2.9752 10.8334 4.58367ZM9.83575 4.58367C9.83575 3.53852 9.16167 2.68815 8.33331 2.68815C7.50496 2.68815 6.83113 3.53852 6.83113 4.58367C6.83113 5.62841 7.50496 6.47852 8.33331 6.47852C9.16167 6.47852 9.83575 5.62841 9.83575 4.58367Z" fill="#3A3B46"/>
</svg>
